<svg t="1778885651472" class="icon" viewBox="0 0 1024 1024" version="1.1" xmlns="http://www.w3.org/2000/svg" p-id="6067" width="200" height="200"><path d="M512 0C229.881141 0 0.33578 200.82820601 0.33578 447.706193c0 137.15799001 69.298523 263.411136 192.193873 349.754474l0 194.56032c0 12.24796199 7.003404 23.40863801 18.036164 28.781112 4.445083 2.110615 9.209956 3.197901 13.94285 3.197901 7.06736199 0 14.07076601-2.334468 19.826989-6.87548799l165.395459-130.63427101C443.213141 892.40635801 477.526623 895.41238601 512 895.41238601c282.118859 0 511.66422-200.82820601 511.66422-447.70619301C1023.66422 200.82820601 794.118859 0 512 0L512 0zM256.48768 925.984323l0-145.472534c0-10.77692799-6.971425-21.84166601-15.989507-27.757784C128.507667 679.394148 64.293807 568.235096 64.293807 447.706193 64.293807 236.101059 265.12201401 63.958028 512 63.958028s447.706193 172.143031 447.706193 383.748165c0 211.60513399-200.82820601 383.748165-447.706193 383.74816499-35.240873 0-70.289872-3.517692-104.187627-10.45713799-2.14259399-0.44770599-4.285188-0.63958-6.427782-0.63958-7.099341 0-14.134724 2.366447-19.79501 6.875488L256.48768 925.984323 256.48768 925.984323z" p-id="6068" fill="#fd4747"></path><path d="M735.853096 351.769151L288.146904 351.769151c-17.652416 0-31.97901399 14.32659801-31.97901401 31.979014 0 17.652416 14.32659801 31.97901399 31.97901401 31.979014l447.706193 0c17.652416 0 31.97901399-14.32659801 31.979014-31.979014C767.83211001 366.09575001 753.505512 351.769151 735.853096 351.769151L735.853096 351.769151z" p-id="6069" fill="#fd4747"></path><path d="M671.895069 543.64323399L352.104931 543.64323399c-17.652416 0-31.97901399 14.32659801-31.979014 31.97901401 0 17.652416 14.32659801 31.97901399 31.979014 31.97901401l319.790138 0c17.652416 0 31.97901399-14.32659801 31.979014-31.97901401C703.874083 557.969832 689.547484 543.64323399 671.895069 543.64323399L671.895069 543.64323399z" p-id="6070" fill="#fd4747"></path></svg>