<svg t="1769495668136" class="icon" viewBox="0 0 1024 1024" version="1.1" xmlns="http://www.w3.org/2000/svg" p-id="5534" width="200" height="200"><path d="M736.66652405 438.54818285l141.11965734 104.91579014c128.07118022 95.18600085 80.47817979 297.55053352-85.6824857 364.30141368l-183.13122823 73.46368051c-166.08524077 66.67545543-326.21192839-52.26933327-288.12244311-214.20621424l41.93614617-178.45489539c38.16491-161.86145626 245.80917332-245.20577553 373.88035353-150.0197747z" p-id="5535" fill="#888888"></path><path d="M331.04984621 416.26364891a147.2 96 69.437 1 0-103.40420026-275.6427604 147.2 96 69.437 1 0 103.40420026 275.6427604Z" p-id="5536" fill="#888888"></path><path d="M216.53731219 717.91377636a147.2 96 69.437 1 0-103.40420101-275.64275965 147.2 96 69.437 1 0 103.40420101 275.64275965Z" p-id="5537" fill="#888888"></path><path d="M634.95806919 302.34259708a147.2 96 69.437 1 0-103.40420025-275.6427604 147.2 96 69.437 1 0 103.40420025 275.6427604Z" p-id="5538" fill="#888888"></path><path d="M920.34931066 453.99248258a147.2 96 69.437 1 0-103.40420101-275.64275965 147.2 96 69.437 1 0 103.40420101 275.64275965Z" p-id="5539" fill="#888888"></path></svg>