<svg t="1757062794756" class="icon" viewBox="0 0 1024 1024" version="1.1" xmlns="http://www.w3.org/2000/svg" p-id="5319" width="200" height="200"><path d="M783.488 534.29333333c18.368-4.224 38.72-5.696 58.24 0.576a63.04 63.04 0 0 1 28.16 17.728c7.68 8.64 12.16 18.688 14.272 28.608 3.968 18.816 0.256 38.912-5.056 56.32-10.688 35.52-33.6 77.568-55.424 115.328-19.84 34.368-38.656 65.28-51.712 89.984l3.328-1.408c17.28-8.192 35.968-19.328 56.32-31.488 19.648-11.84 40.96-24.704 61.696-34.56 20.288-9.6 43.52-18.048 66.688-18.048a32 32 0 1 1 0 64c-8.768 0-21.568 3.52-39.296 11.904-17.28 8.192-35.904 19.392-56.32 31.552-19.584 11.776-40.96 24.64-61.696 34.432-20.288 9.6-43.52 18.112-66.688 18.112a41.856 41.856 0 0 1-33.6-15.552 44.608 44.608 0 0 1-8.576-31.68c1.28-14.528 8.256-30.784 14.912-44.48 14.144-28.928 38.464-68.224 59.584-104.768 22.144-38.4 41.28-74.432 49.536-101.76 3.84-12.608 4.096-20.032 3.712-23.488-4.544-1.28-12.032-1.536-23.68 1.152-12.16 2.752-26.432 8.192-42.624 15.936-33.088 15.744-67.648 37.568-103.36 57.984-17.28 9.856-34.688 19.328-51.072 26.496-16 7.04-33.536 13.056-50.56 14.016-18.112 1.024-38.72-3.84-53.376-22.144C483.84 672.72533333 480 651.09333333 480 629.33333333c0-48.384 27.136-100.48 58.88-147.968 32.576-48.704 74.816-99.392 112.384-145.28 38.528-47.232 71.296-88.448 89.088-121.344 8.96-16.64 12.032-27.52 12.16-33.664 0.192-3.52-0.192-3.712-2.24-5.12-1.664-1.088-9.472-4.16-29.568-0.832-18.944 3.072-43.264 10.88-72.192 23.168-57.6 24.512-127.872 64.384-199.232 110.016-143.232 91.52-285.056 202.048-330.624 247.68a32 32 0 0 1-45.248-45.248c50.368-50.368 196.544-163.84 341.376-256.384 72.576-46.4 146.304-88.448 208.704-115.008 31.104-13.184 60.8-23.168 86.848-27.456 24.832-4.032 53.12-4.032 75.392 10.88 21.952 14.592 31.616 36.544 30.848 60.352-0.64 21.12-9.344 42.56-19.84 62.08-21.312 39.296-58.56 85.504-96 131.328-38.4 47.04-78.144 94.848-108.608 140.416-31.296 46.72-48.128 84.8-48.128 112.384 0 10.112 1.28 15.424 2.112 17.92h0.64c5.44-0.32 14.656-2.688 28.288-8.704 13.248-5.76 28.352-13.888 45.12-23.424 32.256-18.432 71.68-43.072 107.584-60.16 18.304-8.768 37.248-16.448 55.744-20.672z" p-id="5320" fill="#409eff"></path></svg>