<?xml version="1.0" standalone="no"?><!DOCTYPE svg PUBLIC "-//W3C//DTD SVG 1.1//EN" "http://www.w3.org/Graphics/SVG/1.1/DTD/svg11.dtd"><svg t="1765250589148" class="icon" viewBox="0 0 1024 1024" version="1.1" xmlns="http://www.w3.org/2000/svg" p-id="5632" xmlns:xlink="http://www.w3.org/1999/xlink" width="200" height="200"><path d="M592.31288886 972.8H549.82755553l-0.544-0.544-0.544-0.544H538.9262222l-0.544-0.544-0.544-0.544H531.3102222l-0.544-0.544-0.55466667-0.544h-5.44l-0.544-0.544-0.544-0.55466667H518.23288886l-0.544-0.544-0.544-0.544h-2.176l-0.544-0.544-0.544-0.544h-4.36266666l-0.544-0.544-0.544-0.544h-2.176l-0.544-0.544-0.544-0.544h-1.09866667l-0.544-0.544-0.544-0.544h-1.088l-0.544-0.544-0.544-0.544h-1.088l-0.544-0.544-0.544-0.544H495.35288886l-0.544-0.544-0.544-0.55466666h-1.088l-0.544-0.544-0.544-0.544h-3.264l-0.544-0.544-0.55466666-0.544h-4.352l-0.544-0.544-0.544-0.544H479.01155553l-0.544-0.544-0.544-0.544h-2.176l-0.544-0.544-0.544-0.544-0.544-0.544-0.544-0.544h-1.088l-0.544-0.544-0.544-0.544h-1.09866667l-0.544-0.544-0.544-0.55466667h-1.088l-0.544-0.544-0.544-0.544h-2.176l-0.544-0.544-0.544-0.544h-1.088l-0.55466666-0.544-0.544-0.544h-1.088l-0.544-0.544-0.544-0.544h-2.176l-0.544-0.544-0.544-0.544h-2.176l-0.55466667-0.544-0.544-0.544h-1.088l-0.544-0.544-0.544-0.544h-1.088l-0.544-0.55466667-0.544-0.544h-1.088l-0.544-0.544-0.544-0.544-0.544 0.544v1.088l0.544 0.55466667 0.544 0.544 0.544 0.544h2.176l0.544 0.544 0.544 0.544 0.544 0.544 0.544 0.544h1.088l0.544 0.544 0.55466667 0.544h1.088l0.544 0.544 0.544 0.544h1.088l0.544 0.544v1.088l0.544 0.544h1.088l0.544 0.55466667 0.544 0.544h1.088l0.544 0.544 0.55466666 0.544h2.176l0.544 0.544 0.544 0.544 0.544 0.544-0.544 0.544h-1.088l-0.544-0.544-0.544-0.544h-2.18666666l-0.544-0.544-0.544-0.544h-1.088l-0.544-0.544-0.544-0.544h-1.088l-0.544-0.544-0.544-0.55466667-0.544-0.544-0.544-0.544h-1.088l-0.55466667-0.544-0.544-0.544h-2.176l-0.544-0.544-0.544-0.544-0.544-0.544-0.544-0.544-0.544-0.544-0.544-0.544h-2.176l-0.55466667-0.544-0.544-0.544-0.544-0.544-0.544-0.544h-1.088l-0.544-0.55466667-0.544-0.544h-1.088l-0.544-0.544-0.544-0.544-0.544-0.544-0.544-0.544h-1.09866666l-0.544-0.544-0.544-0.544h-1.088l-0.544-0.544-0.544-0.544-0.544-0.544-0.544-0.544h-1.088l-0.544-0.544-0.544-0.544h-1.088l-0.544-0.544-0.55466667-0.544-0.544-0.55466666-0.544-0.544h-1.088l-0.544-0.544-0.544-0.544-0.544-0.544-0.544-0.544h-1.088l-0.544-0.544-0.544-0.544-0.544-0.544-0.544-0.544h-1.09866667l-0.544-0.544-0.544-0.544-0.544-0.544-0.544-0.544h-2.176l-0.544-0.544-0.544-0.544-0.544-0.55466667-0.544-0.544h-1.088l-0.55466666-0.544-0.544-0.544h-1.088l-0.544-0.544-0.544-0.544-0.544-0.544-0.544-0.544h-1.088l-0.544-0.544-0.544-0.544-0.544-0.544-0.544-0.544h-1.088l-0.55466667-0.544-0.544-0.544-0.544-0.544-0.544-0.55466667h-1.088l-0.544-0.544-0.544-0.544-0.544-0.544-0.544-0.544h-1.088l-0.544-0.544-0.544-0.544-0.544-0.544-0.544-0.544-0.55466667-0.544-0.544-0.544h-1.088l-0.544-0.544-0.544-0.544-0.544-0.544-0.544-0.544-0.544-0.544-0.544-0.55466666h-1.088l-0.544-0.544-0.544-0.544-0.544-0.544-0.55466666-0.544h-1.088l-0.544-0.544-0.544-0.544-0.544 0.544v1.088l0.544 0.544 0.544 0.544 0.544 0.544 0.544 0.55466666 0.544 0.544 0.55466666 0.544 0.544 0.544h1.088l0.544 0.544 0.544 0.544 0.544 0.544 0.544 0.544h1.088l0.544 0.544 0.544 0.544 0.544 0.544 0.544 0.544 0.544 0.544 0.55466667 0.544h1.088l0.544 0.544 0.544 0.544 0.544 0.55466667 0.544 0.544h1.088l0.544 0.544 0.544 0.544 0.544 0.544 0.544 0.544 0.544 0.544 0.544 0.544 0.544 0.544 0.55466667 0.544 0.544 0.544 0.544 0.544 0.544 0.544 0.544 0.544h1.088l0.544 0.544 0.544 0.55466667h1.088l0.544 0.544 0.544 0.544 0.544 0.544 0.544 0.544 0.544 0.544 0.55466666 0.544h1.088l0.544 0.544 0.544 0.544 0.544 0.544-0.544 0.544h-1.088l-0.544-0.544-0.544-0.544h-1.09866666l-0.544-0.544-0.544-0.544-0.544-0.544-0.544-0.544h-1.088l-0.544-0.544-0.544-0.544-0.544-0.544-0.544-0.544h-1.088l-0.544-0.55466667-0.544-0.544-0.55466667-0.544-0.544-0.544h-1.088l-0.544-0.544-0.544-0.544h-1.088l-0.544-0.544-0.544-0.544-0.544-0.544-0.544-0.544h-1.088l-0.544-0.544-0.544-0.544h-1.09866667l-0.544-0.544-0.544-0.544-0.544-0.544-0.544-0.55466667-0.544-0.544-0.544-0.544h-1.088l-0.544-0.544-0.544-0.544-0.544-0.544-0.544-0.544h-1.09866666l-0.544-0.544-0.544-0.544-0.544-0.544-0.544-0.544-0.544-0.544-0.544-0.544h-1.088l-0.544-0.544-0.544-0.544-0.544-0.544-0.544-0.55466666-0.544-0.544-0.544-0.544-0.544-0.544-0.55466667-0.544-0.544-0.544-0.544-0.544-0.544-0.544-0.544-0.544-0.544-0.544-0.544-0.544h-1.088l-0.544-0.544-0.544-0.544-0.544-0.544-0.544-0.544-0.544-0.544-0.544-0.55466667-0.544-0.544-0.55466667-0.544h-1.088l-0.544-0.544-0.544-0.544-0.544-0.544-0.544-0.544-0.544-0.544-0.544-0.544-0.544-0.544-0.544-0.544-0.544-0.544-0.544-0.544-0.544-0.544-0.544-0.544h-1.09866666l-0.544-0.55466667-0.544-0.544-0.544-0.544-0.544-0.544-0.544-0.544-0.544-0.544-0.544-0.544v-1.088l-0.544-0.544-0.544-0.544-0.544-0.544-0.544-0.544-0.544-0.544h-1.088l-0.55466667-0.544-0.544-0.544-0.544-0.55466666-0.544-0.544-0.544-0.544-0.544-0.544-0.544-0.544-0.544-0.544-0.544-0.544v-1.088l-0.544-0.544-0.544-0.544-0.544-0.544-0.544-0.544-0.544-0.544-0.544-0.544-0.544-0.544-0.55466667-0.55466667-0.544-0.544-0.544-0.544-0.544-0.544-0.544-0.544-0.544-0.544-0.544-0.544-0.544-0.544-0.544-0.544-0.544-0.544-0.544-0.544-0.544-0.544-0.544-0.544v-1.088l-0.544-0.55466667-0.544-0.544-0.55466666-0.544-0.544-0.544-0.544-0.544-0.544-0.544v-1.088l-0.544-0.544-0.544-0.544-0.544-0.544-0.544-0.544-0.544-0.544-0.544-0.544-0.544-0.544-0.544-0.544-0.544-0.55466666-0.544-0.544-0.544-0.544-0.544-0.544-0.55466667-0.544-0.544-0.544v-1.088l-0.544-0.544-0.544-0.544-0.544-0.544-0.544-0.544v-1.088l-0.544-0.544-0.544-0.544-0.544-0.55466667-0.544-0.544v-1.088l-0.544-0.544-0.544-0.544-0.544-0.544-0.544-0.544v-1.088l-0.544-0.544-0.544-0.544v-1.088l-0.55466667-0.544-0.544-0.55466667-0.544-0.544-0.544-0.544v-1.088l-0.544-0.544-0.544-0.544-0.544-0.544-0.544-0.544-0.544-0.544-0.544-0.544v-1.088l-0.544-0.544-0.544-0.544-0.544-0.544-0.544-0.55466666v-1.088l-0.544-0.544-0.55466666-0.544-0.544-0.544-0.544-0.544-0.544-0.544-0.544-0.544v-1.088l-0.544-0.544-0.544-0.544-0.544-0.544-0.544-0.544v-1.09866667l-0.544-0.544-0.544-0.544-0.544-0.544-0.544-0.544v-1.088l-0.544-0.544-0.544-0.544-0.544-0.544-0.55466667-0.544v-1.088l-0.544-0.544-0.544-0.544v-1.09866667l-0.544-0.544-0.544-0.544v-1.088l-0.544-0.544-0.544-0.544v-1.088l-0.544-0.544-0.544-0.544-0.544-0.544-0.544-0.544v-1.088l-0.544-0.55466666-0.544-0.544v-1.088l-0.544-0.544-0.544-0.544v-1.088l-0.544-0.544-0.55466667-0.544v-1.088l-0.544-0.544-0.544-0.544-0.544-0.544-0.544-0.544v-1.09866667l-0.544-0.544-0.544-0.544v-1.088l-0.544-0.544-0.544-0.544v-1.088l-0.544-0.544-0.544-0.544v-2.18666667l-0.544-0.544-0.544-0.544v-1.088l-0.544-0.544-0.544-0.544v-1.088l-0.55466666-0.544-0.544-0.544v-2.176l-0.544-0.544-0.544-0.55466666v-1.088l-0.544-0.544-0.544-0.544v-1.088l-0.544-0.544-0.544-0.544-0.544-0.544-0.544-0.544v-1.088l-0.544-0.544-0.544-0.544v-1.09866667l-0.544-0.544-0.544-0.544v-1.088l-0.544-0.544-0.544-0.544v-1.088l-0.55466667-0.544-0.544-0.544v-1.088l-0.544-0.544-0.544-0.544v-2.18666667l-0.544-0.544-0.544-0.544v-1.088l-0.544-0.544-0.544-0.544v-2.176l-0.544-0.544-0.544-0.544v-2.18666666l-0.544-0.544-0.544-0.544v-1.088l-0.544-0.544-0.544-0.544v-2.176l-0.544-0.544-0.544-0.544v-1.09866667l-0.55466667-0.544-0.544-0.544v-1.088l-0.544-0.544-0.544-0.544v-2.176l-0.544-0.544-0.544-0.544v-2.18666667l-0.544-0.544-0.544-0.544v-2.176l-0.544-0.544-0.544-0.544v-1.088l-0.544-0.544-0.544-0.544v-2.18666666l-0.544-0.544-0.544-0.544v-3.264l-0.544-0.544-0.55466666-0.544v-2.18666667l-0.544-0.544-0.544-0.544v-3.264l-0.544-0.544-0.544-0.544v-1.088l-0.544-0.544-0.544-0.544v-2.18666667l-0.544-0.544-0.544-0.544v-3.264l-0.544-0.544-0.544-0.544v-2.18666666l-0.544-0.544-0.544-0.544v-3.264l-0.544-0.544-0.544-0.544v-1.088l-0.544-0.544-0.55466667 0.544v5.44l0.55466667 0.544 0.544 0.544v3.27466666l0.544 0.544 0.544 0.544v3.264l0.544 0.544 0.544 0.544v3.27466667l0.544 0.544 0.544 0.544v1.088l0.544 0.544 0.544 0.544v1.088l0.544 0.544 0.544 0.544v1.09866667l0.544 0.544 0.544 0.544v1.088l0.544 0.544 0.544 0.544v7.62666666l0.55466666 0.544 0.544 0.544v1.088l0.544 0.544 0.544 0.544v1.088l0.544 0.544 0.544 0.544v2.18666667l0.544 0.544 0.544 0.544V742.4l0.544 0.544 0.544 0.544V751.11466667l0.544 0.544 0.544 0.544v1.088l0.544 0.544 0.544 0.544 0.544 0.544 0.55466667 0.55466666 0.544 0.544 0.544 0.544 0.544 0.544 0.544 0.544v1.088l0.544 0.544 0.544 0.544v2.176l0.544 0.544 0.544 0.544v1.09866667l0.544 0.544 0.544 0.544v3.264l0.544 0.544 0.544 0.544v1.088l0.544 0.544 0.544 0.544v1.09866667l0.544 0.544 0.55466667 0.544 0.544 0.544 0.544 0.544v2.176l0.544 0.544 0.544 0.544v1.088l0.544 0.544 0.544 0.544v1.09866666l0.544 0.544 0.544 0.544v1.088l0.544 0.544 0.544 0.544v1.088l0.544 0.544 0.544 0.544v1.088l0.544 0.544 0.544 0.544v1.09866667l0.544 0.544 0.55466666 0.544v1.088l0.544 0.544 0.544 0.544v1.088l0.544 0.544 0.544 0.544v1.088l0.544 0.544 0.544 0.55466667v1.088l0.544 0.544 0.544 0.544v1.088l0.544 0.544 0.544 0.544v1.088l0.544 0.544 0.544 0.544v1.088l0.544 0.544 0.544 0.55466666v1.088l0.55466667 0.544 0.544 0.544v1.088l0.544 0.544 0.544 0.544 0.544 0.544 0.544 0.544v1.088l0.544 0.544 0.544 0.544v2.18666667l0.544 0.544 0.544 0.544v1.088l0.544 0.544 0.544 0.544 0.544 0.544 0.544 0.544v1.088l0.544 0.544 0.544 0.544v1.09866667l0.55466667 0.544 0.544 0.544 0.544 0.544 0.544 0.544v1.088l0.544 0.544 0.544 0.544 0.544 0.544 0.544 0.544v1.088l0.544 0.544 0.544 0.544 0.544 0.55466666 0.544 0.544v1.088l0.544 0.544 0.544 0.544 0.544 0.544 0.544 0.544 0.55466666 0.544 0.544 0.544v1.088l0.544 0.544 0.544 0.544 0.544 0.544 0.544 0.544 0.544 0.55466667 0.544 0.544v1.088l0.544 0.544 0.544 0.544 0.544 0.544 0.544 0.544v1.088l0.544 0.544 0.544 0.544 0.544 0.544 0.55466667 0.544v1.09866667l0.544 0.544 0.544 0.544 0.544 0.544 0.544 0.544 0.544 0.544 0.544 0.544 0.544 0.544 0.544 0.544v1.088l0.544 0.544 0.544 0.544 0.544 0.544 0.544 0.544 0.544 0.544 0.544 0.55466666 0.544 0.544 0.55466667 0.544 0.544 0.544 0.544 0.544 0.544 0.544 0.544 0.544v1.088l0.544 0.544 0.544 0.544 0.544 0.544 0.544 0.544 0.544 0.544 0.544 0.544 0.544 0.544 0.544 0.55466667 0.544 0.544 0.544 0.544 0.544 0.544 0.55466666 0.544 0.544 0.544 0.544 0.544 0.544 0.544 0.544 0.544 0.544 0.544 0.544 0.544v1.088l0.544 0.544 0.544 0.544 0.544 0.55466667 0.544 0.544 0.544 0.544 0.544 0.544 0.544 0.544 0.544 0.544 0.55466667 0.544 0.544 0.544 0.544 0.544 0.544 0.544 0.544 0.544 0.544 0.544 0.544 0.544 0.544 0.544v1.088l0.544 0.55466666 0.544 0.544 0.544 0.544 0.544 0.544 0.544 0.544 0.544 0.544 0.544 0.544 0.544 0.544 0.55466667 0.544 0.544 0.544 0.544 0.544 0.544 0.544 0.544 0.544 0.544 0.544 0.544 0.544 0.544 0.544 0.544 0.55466667 0.544 0.544 0.544 0.544 0.544 0.544 0.544 0.544 0.544 0.544 0.544 0.544 0.544 0.544 0.55466666 0.544 0.544 0.544 0.544 0.544 0.544 0.544 0.544 0.544 0.544 0.544 0.544 0.544 0.544 0.55466667 0.544 0.544 0.544 0.544 0.544 0.544h1.088l0.544 0.544 0.544 0.544 0.55466667 0.544v1.088l0.544 0.544h1.088l0.544 0.544 0.544 0.544 0.544 0.544 0.544 0.544h1.088l0.544 0.544 0.544 0.544 0.544 0.55466666 0.544 0.544 0.544 0.544 0.544 0.544 0.55466667 0.544 0.544 0.544 0.544 0.544 0.544 0.544h1.088l0.544 0.544 0.544 0.544 0.544 0.544 0.544 0.544 0.544 0.544 0.544 0.544 0.544 0.544 0.544 0.544 0.544 0.55466667 0.544 0.544h1.09866666l0.544 0.544 0.544 0.544 0.544 0.544 0.544 0.544 0.544 0.544 0.544 0.544 0.544 0.544 0.544 0.544h1.088l0.544 0.544 0.544 0.544 0.544 0.544 0.55466667 0.544 0.544 0.544 0.544 0.55466667 0.544 0.544 0.544 0.544h1.088l0.544 0.544 0.544 0.544 0.544 0.544 0.544 0.544 0.544 0.544 0.544 0.544h1.088l0.544 0.544 0.55466667 0.544 0.544 0.544 0.544 0.544 0.544 0.544 0.544 0.544h1.088l0.544 0.544 0.544 0.55466666 0.544 0.544 0.544 0.544h1.088l0.544 0.544 0.544 0.544 0.544 0.544 0.55466666 0.544h1.088l0.544 0.544 0.544 0.544 0.544 0.544-0.544 0.544h-1.088l-0.544-0.544-0.544-0.544h-1.09866666l-0.544-0.544-0.544-0.544-0.544-0.544-0.544-0.544h-1.088l-0.544-0.544-0.544-0.544-0.544-0.544-0.544-0.544h-1.088l-0.544-0.55466666-0.544-0.544-0.55466667-0.544-0.544-0.544h-2.176l-0.544-0.544v-1.088l-0.544-0.544h-1.088l-0.544-0.544-0.544-0.544-0.544-0.544-0.544-0.544h-1.088l-0.55466667-0.544-0.544-0.544-0.544-0.544-0.544-0.544h-1.088l-0.544-0.55466667-0.544-0.544-0.544-0.544-0.544-0.544-0.544-0.544-0.544-0.544-0.544-0.544-0.544-0.544-0.544-0.544-0.55466666-0.544h-1.088l-0.544-0.544-0.544-0.544-0.544-0.544-0.544-0.544-0.544-0.544-0.544-0.55466667-0.544-0.544-0.544-0.544-0.544-0.544-0.544-0.544-0.544-0.544-0.544-0.544-0.544-0.544-0.55466667-0.544h-1.088l-0.544-0.544-0.544-0.544-0.544-0.544-0.544-0.544-0.544-0.544-0.544-0.544h-1.088l-0.544-0.544-0.544-0.55466666-0.544-0.544-0.544-0.544-0.544-0.544-0.55466667-0.544-0.544-0.544-0.544-0.544h-1.088l-0.544-0.544-0.544-0.544-0.544-0.544-0.544-0.544-0.544-0.544-0.544-0.544-0.544-0.544-0.544-0.544-0.544-0.544-0.544-0.55466667-0.55466666-0.544-0.544-0.544-0.544-0.544-0.544-0.544-0.544-0.544-0.544-0.544-0.544-0.544-0.544-0.544-0.544-0.544-0.544-0.544-0.544-0.544-0.544-0.544-0.544-0.544-0.544-0.544-0.544-0.55466667-0.544-0.544-0.55466667-0.544-0.544-0.544-0.544-0.544-0.544-0.544-0.544-0.544-0.544-0.544-0.544-0.544-0.544-0.544-0.544-0.544-0.544-0.544-0.544-0.544-0.544-0.544-0.544-0.544-0.544-0.544-0.544-0.55466666-0.544-0.544-0.55466667-0.544-0.544-0.544-0.544-0.544-0.544-0.544-0.544-0.544v-1.088l-0.544-0.544-0.544-0.544-0.544-0.544-0.544-0.544-0.544-0.544-0.544-0.544-0.544-0.544-0.544-0.55466667-0.544-0.544-0.544-0.544-0.55466666-0.544-0.544-0.544-0.544-0.544-0.544-0.544-0.544-0.544-0.544-0.544-0.544-0.544-0.544-0.544-0.544-0.544-0.544-0.544-0.544-0.544h-1.088l-0.544-0.544-0.544-0.55466667-0.544-0.544-0.55466667-0.544-0.544-0.544-0.544-0.544-0.544-0.544v-1.088l-0.544-0.544-0.544-0.544-0.544-0.544-0.544-0.544-0.544-0.544-0.544-0.544v-1.088l-0.544-0.55466666-0.544-0.544v-1.088l-0.544-0.544-0.544-0.544-0.544-0.544-0.544-0.544v-1.088l-0.55466667-0.544-0.544-0.544-0.544-0.544-0.544-0.544-0.544-0.544-0.544-0.544v-1.09866667l-0.544-0.544-0.544-0.544-0.544-0.544-0.544-0.544V844.8l-0.544-0.544-0.544-0.544-0.544-0.544-0.544-0.544v-1.088l-0.544-0.544-0.55466666-0.55466667-0.544-0.544-0.544-0.544-0.544-0.544-0.544-0.544v-1.088l-0.544-0.544-0.544-0.544-0.544-0.544-0.544-0.544v-1.088l-0.544-0.544-0.544-0.544-0.544-0.544-0.544-0.55466666v-1.088l-0.544-0.544-0.544-0.544-0.544-0.544-0.55466667-0.544v-1.088l-0.544-0.544-0.544-0.544v-1.088l-0.544-0.544-0.544-0.544-0.544-0.544-0.544-0.55466667v-1.088l-0.544-0.544-0.544-0.544v-1.088l-0.544-0.544-0.544-0.544v-1.088l-0.544-0.544-0.544-0.544-0.544-0.544-0.544-0.544v-1.09866667l-0.544-0.544-0.55466667-0.544v-1.088l-0.544-0.544-0.544-0.544v-1.088l-0.544-0.544-0.544-0.544v-1.088l-0.544-0.544-0.544-0.544v-1.09866666l-0.544-0.544-0.544-0.544v-1.088l-0.544-0.544-0.544-0.544v-1.088l-0.544-0.544-0.544-0.544v-1.088l-0.544-0.544-0.544-0.544v-1.09866667l-0.55466666-0.544-0.544-0.544v-1.088l-0.544-0.544-0.544-0.544v-1.088l-0.544-0.544-0.544-0.544v-1.088l-0.544-0.544-0.544-0.55466667v-1.088l-0.544-0.544-0.544-0.544-0.544-0.544-0.544-0.544v-1.088l-0.544-0.544-0.544-0.544v-1.088l-0.544-0.544-0.544-0.544v-2.18666666l-0.55466667-0.544-0.544-0.544-0.544-0.544-0.544-0.544v-2.176l-0.544-0.544-0.544-0.544v-1.088l-0.544-0.544-0.544-0.55466667-0.544-0.544-0.544-0.544v-1.088l-0.544-0.544-0.544-0.544v-1.088l-0.544-0.544-0.544-0.544v-2.176l-0.544-0.55466667-0.544-0.544v-1.088l-0.55466667-0.544-0.544-0.544v-2.176l-0.544-0.544-0.544-0.544v-1.088l-0.544-0.544-0.544-0.544v-1.09866666l-0.544-0.544-0.544-0.544v-2.176l-0.544-0.544-0.544-0.544v-1.088l-0.544-0.544-0.544-0.544v-2.18666667l-0.544-0.544-0.544-0.544v-1.088l-0.544-0.544-0.55466666-0.544v-2.176l-0.544-0.544-0.544-0.544v-2.18666667l-0.544-0.544-0.544-0.544v-1.088l-0.544-0.544-0.544-0.544v-3.264l-0.544-0.544-0.544-0.55466666v-3.264l-0.544-0.544-0.544-0.544v-2.176l-0.544-0.544-0.544-0.544v-3.27466667l-0.544-0.544-0.544-0.544v-2.176l-0.544-0.544-0.55466667-0.544v-4.36266667l-0.544-0.544-0.544-0.544v-1.088l-0.544-0.544-0.544-0.544-0.544-0.544-0.544 0.544v3.264l0.544 0.544 0.544 0.544V716.256l0.544 0.544 0.544 0.544v2.176l0.544 0.544 0.544 0.544v2.18666667l0.55466667 0.544 0.544 0.544v2.176l0.544 0.544 0.544 0.544V730.42133333l0.544 0.544 0.544 0.544v1.088l0.544 0.544 0.544 0.544v4.352l0.544 0.55466667 0.544 0.544v2.176l0.544 0.544 0.544 0.544v2.176l0.544 0.544 0.544 0.544v2.18666667l0.544 0.544 0.544 0.544 0.55466666 0.544 0.544 0.544v2.176l0.544 0.544 0.544 0.544v2.18666666l0.544 0.544 0.544 0.544v1.088l0.544 0.544 0.544 0.544v2.176l0.544 0.544 0.544 0.544v2.18666667l0.544 0.544 0.544 0.544v2.176l0.544 0.544 0.544 0.544v2.176l0.544 0.544 0.55466667 0.544v2.18666667l0.544 0.544 0.544 0.544v2.176l0.544 0.544 0.544 0.544v2.176l0.544 0.55466666 0.544 0.544v1.088l0.544 0.544 0.544 0.544v1.088l0.544 0.544 0.544 0.544v1.088l0.544 0.544 0.544 0.544v1.088l0.544 0.55466667 0.544 0.544v1.088l0.544 0.544 0.55466667 0.544V793.6l0.544 0.544 0.544 0.544 0.544 0.544 0.544 0.544v1.088l0.544 0.544 0.544 0.55466667 0.544 0.544 0.544 0.544v1.088l0.544 0.544 0.544 0.544v1.088l0.544 0.544 0.544 0.544v1.088l0.544 0.544 0.544 0.544v1.09866666l0.544 0.544 0.55466666 0.544v1.088l0.544 0.544 0.544 0.544v1.088l0.544 0.544 0.544 0.544v1.088l0.544 0.544 0.544 0.544v1.09866667l0.544 0.544 0.544 0.544 0.544 0.544 0.544 0.544v1.088l0.544 0.544 0.544 0.544v1.088l0.544 0.544 0.544 0.544v1.088l0.55466667 0.55466667 0.544 0.544 0.544 0.544 0.544 0.544v1.088l0.544 0.544 0.544 0.544v1.088l0.544 0.544 0.544 0.544 0.544 0.544 0.544 0.544v1.088l0.544 0.55466666 0.544 0.544 0.544 0.544 0.544 0.544v1.088l0.544 0.544 0.544 0.544 0.55466667 0.544 0.544 0.544v1.088l0.544 0.544 0.544 0.544v1.088l0.544 0.55466667 0.544 0.544v1.088l-0.544 0.544-0.544-0.544-0.544-0.544-0.544-0.544-0.544-0.544-0.55466667-0.55466667-0.544-0.544-0.544-0.544-0.544-0.544-0.544-0.544-0.544-0.544-0.544-0.544-0.544-0.544-0.544-0.544v-1.088l-0.544-0.544-0.544-0.544-0.544-0.544-0.544-0.544v-1.09866666l-0.544-0.544-0.544-0.544-0.544-0.544-0.55466667 0.544v1.088l0.55466667 0.55466666 0.544 0.544v1.088l0.544 0.544 0.544 0.544-0.544 0.544h-1.088l-0.55466667-0.544-0.544-0.544-0.544-0.544v-1.088l-0.544-0.544-0.544-0.55466666-0.544-0.544-0.544-0.544v-1.088l-0.544-0.544-0.544-0.544-0.544-0.544-0.544-0.544v-1.088l-0.544-0.544-0.544-0.544-0.544-0.544-0.544-0.544v-1.09866667l-0.55466666-0.544-0.544-0.544-0.544-0.544-0.544-0.544v-1.088l-0.544-0.544-0.544-0.544v-1.088l-0.544-0.544-0.544-0.544v-1.088l0.544-0.55466667 0.544 0.55466667 0.544 0.544 0.544 0.544v1.088l0.544 0.544 0.544 0.544 0.544 0.544 0.55466666 0.544v1.088l0.544 0.544 0.544 0.544v1.088l0.544 0.55466667 0.544 0.544 0.544 0.544 0.544 0.544v1.088l0.544 0.544 0.544 0.544 0.544 0.544 0.544 0.544 0.544 0.544 0.544-0.544v-1.088l-0.544-0.544-0.544-0.544v-1.088l-0.544-0.544-0.544-0.544-0.544-0.544-0.544-0.55466667v-1.088l-0.544-0.544-0.544-0.544v-1.088l-0.544-0.544-0.544-0.544v-1.088l-0.544-0.544-0.544-0.544v-1.088l-0.55466666-0.55466667-0.544-0.544-0.544-0.544-0.544-0.544v-1.088l-0.544-0.544-0.544-0.544v-1.088l-0.544-0.544-0.544-0.544-0.544-0.544-0.544-0.544v-1.088l-0.544-0.55466666-0.544-0.544v-2.176l-0.544-0.544-0.544-0.544-0.544-0.544-0.544-0.544v-1.088l-0.55466667-0.544-0.544-0.544v-1.088l-0.544-0.55466667-0.544-0.544v-1.088l-0.544-0.544-0.544-0.544v-2.176l-0.544-0.544-0.544-0.544v-2.18666667l-0.544-0.544-0.544-0.544v-2.176l-0.544-0.544-0.544-0.544v-1.088l-0.544-0.544-0.544-0.544v-1.088l-0.544-0.544-0.544-0.55466666v-2.176l-0.55466667-0.544-0.544-0.544v-1.088l-0.544-0.544-0.544-0.544v-2.176l-0.544-0.544-0.544-0.55466667v-1.088l-0.544-0.544-0.544-0.544v-1.088l-0.544-0.544-0.544-0.544v-2.176l-0.544-0.544-0.544-0.544v-1.09866667l-0.544-0.544-0.544-0.544v-2.176l-0.544-0.544-0.55466666-0.544v-2.176l-0.544-0.544-0.544-0.544v-2.18666666l-0.544-0.544-0.544-0.544v-1.088l-0.544-0.544-0.544-0.544v-2.176l-0.544-0.544-0.544-0.544v-2.18666667l-0.544-0.544-0.544-0.544v-2.176l-0.544-0.544-0.544-0.544v-2.18666667l-0.544-0.544-0.544-0.544v-2.176l-0.544-0.544-0.55466667-0.544v-3.264l-0.544-0.544-0.544-0.55466666v-2.176l-0.544-0.544-0.544-0.544v-1.088l-0.544-0.544-0.544-0.544v-4.36266667l-0.544-0.544-0.544-0.544v-2.176l-0.544-0.544-0.544-0.544v-4.36266667l-0.544-0.544-0.544-0.544v-3.264l-0.544-0.544-0.544-0.544V698.82666667l-0.544-0.544-0.55466667-0.544v-4.36266667l-0.544-0.544-0.544-0.544v-5.45066667l-0.544-0.544-0.544-0.544v-5.44l-0.544-0.544-0.544-0.544V672.68266667l-0.544-0.544-0.544-0.544V662.88l-0.544-0.544-0.544-0.544v-3.27466667l-0.544-0.544-0.544 0.544V670.50666667l0.544 0.544 0.544 0.544v8.71466666l0.544 0.544 0.544 0.544v5.44l0.544 0.55466667 0.544 0.544v4.352l0.544 0.544 0.544 0.544V699.91466667l-0.544 0.544-0.544-0.544v-1.088l-0.544-0.544-0.544-0.544v-1.088l-0.544-0.544-0.544 0.544V703.17866667l0.544 0.544 0.544 0.55466666v4.352l0.544 0.544 0.544 0.544v2.176l-0.544 0.544-0.544 0.55466667 0.544 0.544 0.544 0.544 0.544 0.544 0.544 0.544v1.088l0.544 0.544 0.544 0.544V724.97066667l0.544 0.544 0.544 0.544v2.176l0.55466667 0.544 0.544 0.544v3.27466666l0.544 0.544 0.544 0.544v2.176l0.544 0.544 0.544 0.544 0.544 0.544 0.544-0.544v-3.264l0.544-0.544 0.544 0.544 0.544 0.544 0.544 0.544v2.176l0.544 0.544 0.544 0.544v2.18666667l0.544 0.544 0.544 0.544V742.4l0.55466667 0.544 0.544 0.544V746.76266667l0.544 0.544 0.544 0.544v1.088l-0.544 0.544-0.544-0.544-0.544-0.544-0.55466667-0.544v-2.18666667l-0.544-0.544-0.544-0.544v-1.088l-0.544-0.544-0.544-0.544v-1.088l-0.544-0.544-0.544-0.544v-1.088l-0.544-0.544h-1.088l-0.544 0.544v1.088l0.544 0.544 0.544 0.544 0.544 0.544 0.544 0.544v2.176l0.544 0.544 0.544 0.544v2.18666667l0.544 0.544 0.544 0.544v2.176l0.544 0.544 0.544 0.544v2.176l0.55466667 0.544 0.544 0.55466666v1.088l0.544 0.544 0.544 0.544v1.088l0.544 0.544 0.544 0.544v2.176l0.544 0.544 0.544 0.544v2.18666667l0.544 0.544 0.544 0.544 0.544 0.544 0.544 0.544v1.088l0.544 0.544 0.544 0.544v1.088l0.544 0.544 0.544-0.544v-2.176l0.55466666-0.544 0.544 0.544v1.088l0.544 0.544 0.544 0.544v3.27466667l0.544 0.544 0.544 0.544v2.176l0.544 0.544 0.544 0.544v1.088l0.544 0.544 0.544 0.544v1.09866666l0.544 0.544 0.544 0.544v1.088l0.544 0.544 0.544 0.544v2.176l0.544 0.544 0.55466667 0.544v1.088l0.544 0.55466667 0.544 0.544v1.088l0.544 0.544 0.544 0.544V793.6l0.544 0.544 0.544 0.544v2.176l0.544 0.544 0.544 0.55466667v1.088l0.544 0.544 0.544 0.544v1.088l-0.544 0.544-0.544-0.544-0.544-0.544-0.544-0.544v-1.088l-0.544-0.544-0.544-0.544v-1.09866667l-0.544-0.544-0.544-0.544v-1.088l-0.544-0.544-0.544-0.544v-1.088l-0.55466667-0.544-0.544-0.544v-2.18666667l-0.544-0.544-0.544-0.544v-1.088l-0.544-0.544-0.544-0.544v-1.088l-0.544-0.544-0.544-0.544v-1.088l-0.544-0.544-0.544-0.544v-1.09866666l-0.544-0.544-0.544-0.544v-1.088l-0.544-0.544-0.544-0.544-0.544-0.544-0.55466666 0.544v1.088l0.55466666 0.544 0.544 0.544v1.088l0.544 0.55466666 0.544 0.544v2.176l0.544 0.544 0.544 0.544v1.088l0.544 0.544 0.544 0.544v1.088l0.544 0.544 0.544 0.544v2.18666667l0.544 0.544 0.544 0.544v2.176l0.544 0.544 0.544 0.544v1.088l0.544 0.544 0.55466667 0.55466667v2.176l0.544 0.544 0.544 0.544 0.544 0.544 0.544 0.544v1.088l0.544 0.544 0.544 0.544v1.088l0.544 0.544 0.544 0.55466666v1.088l0.544 0.544 0.544 0.544 0.544 0.544 0.544 0.544v2.176l0.544 0.544 0.544 0.544v1.088l0.544 0.544 0.55466667 0.55466667v1.088l0.544 0.544 0.544 0.544 0.544 0.544 0.544 0.544v1.088l0.544 0.544 0.544 0.544v1.088l0.544 0.544 0.544 0.544v1.09866667l0.544 0.544 0.544 0.544 0.544 0.544 0.544 0.544v1.088l0.544 0.544 0.544 0.544v1.088l0.544 0.544 0.55466666 0.544 0.544 0.544 0.544 0.544v1.09866666l0.544 0.544 0.544 0.544v1.088l-0.544 0.544-0.544-0.544-0.544-0.544-0.544-0.544v-1.088l-0.55466666-0.544-0.544-0.55466666-0.544-0.544-0.544-0.544v-1.088l-0.544-0.544-0.544-0.544v-1.088l-0.544-0.544-0.544-0.544-0.544-0.544-0.544-0.544v-1.088l-0.544-0.544-0.544-0.55466667-0.544-0.544-0.544-0.544-0.544-0.544-0.544-0.544v-1.088l-0.55466667-0.544-0.544-0.544-0.544-0.544-0.544-0.544v-1.088l-0.544-0.544-0.544-0.544v-1.09866667l-0.544-0.544-0.544-0.544-0.544-0.544-0.544-0.544v-1.088l-0.544-0.544-0.544-0.544v-1.088l-0.544-0.544-0.544-0.544v-1.088l-0.544-0.55466666-0.544-0.544v-1.088l-0.55466667-0.544-0.544-0.544v-2.176l-0.544-0.544-0.544-0.544v-1.088l-0.544-0.544-0.544-0.544v-1.09866667l-0.544-0.544-0.544-0.544V793.6l-0.544-0.544-0.544-0.544v-1.088l-0.544-0.544-0.544-0.544-0.544-0.544-0.544-0.55466667v-2.176l-0.544-0.544-0.55466666-0.544v-1.088l-0.544-0.544-0.544-0.544v-1.088l-0.544-0.544-0.544-0.544v-2.18666666l-0.544-0.544-0.544-0.544v-1.088l-0.544-0.544-0.544-0.544v-1.088l-0.544-0.544-0.544-0.544v-2.18666667l-0.544-0.544-0.544-0.544-0.544-0.544-0.544-0.544v-1.088l-0.544-0.544-0.55466667-0.544v-3.264l-0.544-0.55466667-0.544-0.544v-2.176l-0.544-0.544-0.544-0.544v-2.176l-0.544-0.544-0.544-0.544v-1.088l-0.544-0.55466666-0.544-0.544v-1.088l-0.544-0.544-0.544-0.544v-2.176l-0.544-0.544h-1.088l-0.544 0.544v1.088l0.544 0.544 0.544 0.544V757.65333333l-0.544 0.544-0.544-0.544v-1.088l-0.544-0.544-0.55466667-0.544v-3.27466666l-0.544-0.544-0.544-0.544v-1.088l-0.544-0.544-0.544-0.544v-2.176l-0.544-0.55466667-0.544-0.544v-2.176l-0.544-0.544-0.544-0.544v-2.176l-0.544-0.544-0.544-0.544v-3.27466667l0.544-0.544 0.544 0.544 0.544 0.544 0.544-0.544v-4.352l-0.544-0.544-0.544-0.544v-2.18666666l-0.544-0.544-0.544-0.544v-1.088l-0.544-0.544-0.544-0.544v-3.264l-0.544-0.544-0.544 0.544v4.352l-0.55466666 0.544-0.544-0.544v-2.176l-0.544-0.544-0.544-0.544v-2.18666667l-0.544-0.544-0.544-0.544v-3.264l-0.544-0.544-0.544-0.544v-2.176l-0.544-0.55466667-0.544-0.544v-2.176l-0.544-0.544-0.544-0.544-0.544-0.544-0.544-0.544V702.09066667l-0.544-0.544-0.544-0.544v-5.44l-0.55466667-0.55466667-0.544-0.544V691.2l-0.544-0.544-0.544-0.544v-2.176l-0.544-0.544-0.544-0.55466667v-4.352l-0.544-0.544-0.544-0.544v-4.36266666l-0.544-0.544-0.544-0.544v-9.80266667l-0.544-0.544-0.544-0.544v-3.264l-0.544-0.55466667-0.544-0.544V649.80266667l-0.544-0.544-0.544-0.544V635.63733333l-0.55466667-0.544-0.544-0.544v-5.44l-0.544-0.544-0.544-0.544v-1.09866666l0.544-0.544 0.544-0.544V611.68l-0.544-0.544-0.544-0.544V596.42666667l-0.544-0.544-0.544-0.544 0.544-0.544 0.544-0.544V588.8l0.544-0.544 0.544-0.544V584.43733333l-0.544-0.544-0.544-0.544-0.544-0.544-0.544-0.544-0.544-0.544-0.544-0.544v-1.088l0.544-0.544 0.544 0.544 0.544 0.544 0.544-0.544 0.544-0.544 0.544-0.544V575.72266667l0.544-0.544 0.55466667-0.544v-1.088l-0.55466667-0.544-0.544-0.544V565.92l0.544-0.544 0.55466667-0.544v-6.53866667l0.544-0.544 0.544-0.544v-5.44l0.544-0.544 0.544-0.544v-4.36266666l0.544-0.544 0.544-0.544v-3.264l0.544-0.55466667 0.544-0.544v-8.71466667l-0.544-0.544-0.544 0.544v1.088l-0.544 0.55466667-0.544 0.544v4.352l-0.544 0.544-0.544 0.544v4.36266667l-0.544 0.544-0.544 0.544v4.352l-0.55466667 0.544-0.544 0.55466666v5.44l-0.544 0.544-0.544 0.544V563.744l-0.544 0.544-0.544 0.544V568.10666667l-0.544 0.544-0.544-0.544V561.568l0.544-0.544 0.544-0.544V552.85333333l0.544-0.544 0.544-0.544v-4.36266666l0.544-0.544 0.544-0.544v-4.352l0.544-0.55466667 0.55466667-0.544V534.336l0.544-0.544 0.544-0.55466667v-3.264l0.544-0.544 0.544-0.544v-3.264l0.544-0.544 0.544-0.55466666v-2.176l0.544-0.544 0.544-0.544v-5.45066667l0.544-0.544 0.544-0.544v-3.264l0.544-0.544 0.544-0.544V507.09333333l0.544-0.544 0.544-0.544v-1.088l0.544-0.544 0.55466667-0.544v-2.176l0.544-0.544 0.544-0.544v-3.27466666l0.544-0.544 0.544-0.544v-3.264l0.544-0.544 0.544-0.544v-3.27466667l0.544-0.544 0.544-0.544V486.4l0.544-0.544 0.544-0.544v-2.176l0.544-0.544 0.544-0.55466667v-2.176l0.544-0.544 0.544-0.544v-2.176l0.544-0.544 0.55466666-0.544v-3.27466666l0.544-0.544 0.544-0.544v-2.176l0.544-0.544 0.544-0.544V464.608l0.544-0.544 0.544-0.544v-2.176l0.544-0.544 0.544-0.544v-2.176l0.544-0.544 0.544-0.544v-2.18666667l0.544-0.544 0.544-0.544v-2.176l0.544-0.544 0.544-0.544v-2.176l0.55466667-0.55466666 0.544-0.544v-1.088l0.544-0.544 0.544-0.544v-1.088l0.544-0.544 0.544-0.544v-1.088l0.544-0.544 0.544-0.544v-1.088l0.544-0.55466667 0.544-0.544 0.544-0.544 0.544-0.544v-1.088l0.544-0.544 0.544-0.544v-1.088l0.544-0.544 0.544-0.544v-1.088l0.55466667-0.544 0.544-0.55466667v-1.088l0.544-0.544 0.544-0.544v-1.088l0.544-0.544 0.544-0.544v-1.088l0.544-0.544 0.544-0.544v-1.088l0.544-0.544 0.544-0.55466666v-1.088l0.544-0.544 0.544-0.544v-2.176l0.544-0.544 0.544-0.544v-2.176l0.544-0.544 0.544-0.55466667v-1.088l0.55466666-0.544 0.544-0.544v-1.088l0.544-0.544 0.544-0.544 0.544-0.544 0.544-0.544v-1.088l0.544-0.544 0.544-0.544v-1.09866667l0.544-0.544 0.544-0.544v-1.088l0.544-0.544 0.544-0.544 0.544-0.544 0.544-0.544v-1.088l0.544-0.544 0.55466667-0.544v-1.088l0.544-0.55466666 0.544-0.544v-1.088l0.544-0.544 0.544-0.544 0.544-0.544 0.544-0.544v-1.088l0.544-0.544 0.544-0.544v-1.088l0.544-0.544 0.544-0.544v-1.09866667l0.544-0.544 0.544-0.544 0.544-0.544 0.544-0.544V384l0.544-0.544 0.55466667-0.544v-1.088l0.544-0.544 0.544-0.544 0.544-0.544 0.544-0.55466667v-1.088l0.544-0.544 0.544-0.544 0.544-0.544 0.544-0.544v-1.088l0.544-0.544 0.544-0.544v-1.088l0.544-0.544 0.544-0.544 0.544-0.544 0.544-0.55466666v-1.088l0.544-0.544 0.55466666-0.544v-1.088l0.544-0.544 0.544-0.544 0.544-0.544 0.544-0.544v-1.088l0.544-0.544 0.544-0.544 0.544-0.544 0.544-0.55466667v-1.088l0.544-0.544 0.544-0.544 0.544-0.544 0.544-0.544v-1.088l0.544-0.544 0.544-0.544v-1.088l0.55466667-0.544 0.544-0.544 0.544-0.55466667 0.544-0.544v-1.088l0.544-0.544 0.544-0.544 0.544-0.544 0.544-0.544v-1.088l0.544-0.544 0.544-0.544 0.544-0.544 0.544-0.544v-1.088l0.544-0.55466666 0.544-0.544 0.544-0.544 0.544-0.544v-1.088l0.55466667-0.544 0.544-0.544 0.544-0.544 0.544-0.544v-1.088l0.544-0.544 0.544-0.544 0.544-0.544 0.544-0.544v-1.09866667l0.544-0.544 0.544-0.544 0.544-0.544 0.544-0.544V332.8l0.544-0.544 0.544-0.544 0.544-0.544 0.544-0.544v-1.088l0.55466666-0.544 0.544-0.55466667 0.544-0.544 0.544-0.544v-1.088l0.544-0.544 0.544-0.544 0.544-0.544 0.544-0.544v-1.088l0.544-0.544 0.544-0.544 0.544-0.544 0.544-0.544v-1.09866666l0.544-0.544 0.544-0.544 0.544-0.544 0.55466667-0.544v-1.088l0.544-0.544 0.544-0.544 0.544-0.544 0.544-0.544v-1.088l0.544-0.544 0.544-0.544 0.544-0.544 0.544-0.55466667 0.544-0.544 0.544-0.544v-1.088l0.544-0.544 0.544-0.544 0.544-0.544 0.544-0.544 0.544-0.544 0.55466667-0.544v-1.088l0.544-0.544 0.544-0.544 0.544-0.55466667 0.544-0.544v-1.088l0.544-0.544 0.544-0.544 0.544-0.544 0.544-0.544v-1.088l0.544-0.544 0.544-0.544 0.544-0.544 0.544-0.544 0.544-0.544 0.544-0.544v-1.09866666l0.544-0.544 0.55466666-0.544 0.544-0.544 0.544-0.544v-1.088l0.544-0.544 0.544-0.544 0.544-0.544 0.544-0.544 0.544-0.544 0.544-0.544v-1.088l0.544-0.55466667 0.544-0.544 0.544-0.544 0.544-0.544 0.544-0.544 0.544-0.544V281.6l0.55466667-0.544 0.544-0.544 0.544-0.544 0.544-0.544 0.544-0.544 0.544-0.544v-1.09866667l0.544-0.544 0.544-0.544 0.544-0.544 0.544-0.544 0.544-0.544 0.544-0.544 0.544-0.544 0.544-0.544v-1.088l0.544-0.544 0.544-0.544 0.55466667-0.544 0.544-0.544 0.544-0.544 0.544-0.55466666 0.544-0.544 0.544-0.544v-1.088l0.544-0.544 0.544-0.544 0.544-0.544 0.544-0.544 0.544-0.544 0.544-0.544 0.544-0.544 0.544-0.544 0.544-0.544 0.544-0.544v-1.09866667l0.55466666-0.544 0.544-0.544 0.544-0.544 0.544-0.544 0.544-0.544 0.544-0.544 0.544-0.544 0.544-0.544 0.544-0.544 0.544-0.544v-1.088l0.544-0.544 0.544-0.544 0.544-0.55466667 0.544-0.544 0.544-0.544 0.55466667-0.544 0.544-0.544 0.544-0.544 0.544-0.544 0.544-0.544 0.544-0.544 0.544-0.544v-1.088l0.544-0.544 0.544-0.544 0.544-0.544 0.544-0.544 0.544-0.55466666 0.544-0.544 0.544-0.544 0.544-0.544 0.544-0.544 0.55466667-0.544 0.544-0.544 0.544-0.544v-1.088l0.544-0.544 0.544-0.544 0.544-0.544 0.544-0.544 0.544-0.544 0.544-0.544 0.544-0.55466667 0.544-0.544 0.544-0.544 0.544-0.544 0.544-0.544 0.544-0.544 0.544-0.544 0.55466666-0.544 0.544-0.544 0.544-0.544v-1.088l0.544-0.544 0.544-0.544 0.544-0.544 0.544-0.55466667 0.544-0.544 0.544-0.544 0.544-0.544 0.544-0.544 0.544-0.544 0.544-0.544 0.544-0.544 0.544-0.544 0.55466667-0.544 0.544-0.544 0.544-0.544 0.544-0.544 0.544-0.544 0.544-0.544 0.544-0.544 0.544-0.55466666 0.544-0.544 0.544-0.544 0.544-0.544 0.544-0.544 0.544-0.544 0.544-0.544v-1.088l0.544-0.544 0.544-0.544 0.55466667-0.544 0.544-0.544 0.544-0.544 0.544-0.544 0.544-0.544 0.544-0.55466667 0.544-0.544 0.544-0.544 0.544-0.544 0.544-0.544 0.544-0.544 0.544-0.544 0.544-0.544 0.544-0.544 0.544-0.544 0.544-0.544 0.55466666-0.544 0.544-0.544 0.544-0.544 0.544-0.544 0.544-0.55466667 0.544-0.544 0.544-0.544h1.088l0.544-0.544 0.544-0.544 0.544-0.544 0.544-0.544 0.544-0.544 0.544-0.544 0.55466667-0.544 0.544-0.544 0.544-0.544 0.544-0.544 0.544-0.544 0.544-0.544 0.544-0.544 0.544-0.55466666 0.544-0.544 0.544-0.544h1.088l0.544-0.544 0.544-0.544 0.544-0.544 0.544-0.544 0.55466667-0.544 0.544-0.544 0.544-0.544 0.544-0.544 0.544-0.544 0.544-0.544 0.544-0.544 0.544-0.544h1.088l0.544-0.544 0.544-0.55466667 0.544-0.544 0.544-0.544 0.544-0.544 0.544-0.544 0.55466666-0.544 0.544-0.544h1.088l0.544-0.544 0.544-0.544 0.544-0.544 0.544-0.544 0.544-0.544 0.544-0.544 0.544-0.544 0.544-0.544h1.088l0.544-0.55466667 0.55466667-0.544 0.544-0.544 0.544-0.544 0.544-0.544 0.544-0.544 0.544-0.544 0.544-0.544h1.088l0.544-0.544 0.544-0.544 0.544-0.544 0.544-0.544 0.544-0.544 0.544-0.544h1.09866667l0.544-0.544 0.544-0.544 0.544-0.55466666 0.544-0.544 0.544-0.544 0.544-0.544 0.544-0.544 0.544-0.544h1.088l0.544-0.544 0.544-0.544 0.544-0.544 0.544-0.544 0.544-0.544 0.55466666-0.544h1.088l0.544-0.544 0.544-0.544 0.544-0.544 0.544-0.544 0.544-0.55466667 0.544-0.544h1.088l0.544-0.544 0.544-0.544h1.088l0.55466667-0.544 0.544-0.544 0.544-0.544 0.544-0.544h1.088l0.544-0.544 0.544-0.544 0.544-0.544 0.544-0.544h1.088l0.544-0.544 0.544-0.544h1.088l0.55466667-0.544 0.544-0.55466667 0.544-0.544 0.544-0.544h1.088l0.544-0.544 0.544-0.544h1.088l0.544-0.544 0.544-0.544h1.088l0.544-0.544 0.544-0.544 0.55466666-0.544 0.544-0.544 0.544-0.544 0.544-0.544 0.544-0.544 0.544-0.544 0.544-0.544 0.544-0.55466666 0.544-0.544 0.544-0.544 0.544-0.544 0.544-0.544 0.544-0.544v-1.088l0.544-0.544 0.544-0.544 0.55466667-0.544 0.544-0.544 0.544-0.544 0.544-0.544 0.544-0.544 0.544-0.544v-1.09866667l0.544-0.544 0.544-0.544 0.544-0.544 0.544-0.544 0.544-0.544 0.544-0.544 0.544-0.544 0.544-0.544v-1.088l0.544-0.544 0.544-0.544 0.55466667-0.544 0.544-0.55466667 0.544-0.544 0.544-0.544 0.544-0.544 0.544-0.544 0.544-0.544 0.544-0.544v-1.088l0.544-0.544 0.544-0.544 0.544-0.544 0.544-0.544 0.544-0.544 0.544-0.544 0.544-0.544 0.544-0.55466666 0.55466666-0.544 0.544-0.544 0.544-0.544 0.544-0.544v-1.088l0.544-0.544 0.544-0.544 0.544-0.544 0.544-0.544 0.544-0.544 0.544-0.544 0.544-0.544 0.544-0.544 0.544-0.544 0.544-0.55466667 0.544-0.544 0.55466667-0.544v-1.088l0.544-0.544 0.544-0.544 0.544-0.544 0.544-0.544 0.544-0.544 0.544-0.544 0.544-0.544 0.544-0.544 0.544-0.544 0.544-0.544 0.544-0.55466667 0.544-0.544 0.544-0.544 0.544-0.544 0.544-0.544 0.55466667-0.544 0.544-0.544 0.544-0.544 0.544-0.544 0.544-0.544 0.544-0.544 0.544-0.544 0.544-0.544 0.544-0.544 0.544-0.544 0.544-0.544 0.544-0.55466666 0.544-0.544 0.544-0.544 0.544-0.544 0.544-0.544 0.55466666-0.544 0.544-0.544 0.544-0.544 0.544-0.544 0.544-0.544 0.544-0.544H543.28888886l0.544-0.544 0.544-0.544 0.544-0.544 0.544-0.544 0.544-0.544 0.544-0.55466667 0.544-0.544 0.55466667-0.544 0.544-0.544 0.544-0.544h1.088l0.544-0.544 0.544-0.544 0.544-0.544 0.544-0.544 0.544-0.544 0.544-0.544 0.544-0.544 0.544-0.544h1.088l0.544-0.544 0.55466667-0.544 0.544-0.55466667 0.544-0.544h1.088l0.544-0.544 0.544-0.544 0.544-0.544 0.544-0.544 0.544-0.544 0.544-0.544h1.088l0.544-0.544 0.544-0.544h1.09866666l0.544-0.544 0.544-0.544 0.544-0.544 0.544-0.544h1.088l0.544-0.544 0.544-0.544h1.088l0.544-0.55466666 0.544-0.544h1.088l0.55466667-0.544 0.544-0.544h1.088l0.544-0.544 0.544-0.544h1.088l0.544-0.544 0.544-0.544h1.088l0.544-0.544 0.544-0.544h1.088l0.55466667-0.544 0.544-0.544h2.176l0.544-0.544 0.544-0.544h1.088l0.544-0.544 0.544-0.544h2.176l0.55466666-0.55466667 0.544-0.544h2.176l0.544-0.544 0.544-0.544h3.264l0.544-0.544 0.55466667-0.544h4.352l0.544-0.544 0.544-0.544h2.176l0.544 0.544v1.088l0.55466667 0.544 0.544 0.544V72.43733333l-0.544 0.55466667-0.55466667 0.544v5.44l-0.544 0.544-0.544 0.544v4.36266667l-0.544 0.544-0.544 0.544V90.96533333l-0.544 0.544-0.544 0.544v5.44l-0.544 0.544-0.544 0.55466667v5.44l-0.544 0.544-0.544 0.544V110.57066667l-0.544 0.544-0.544 0.544V117.10933333l-0.544 0.544-0.544 0.544v5.44l-0.544 0.55466667-0.55466667 0.544V131.264l-0.544 0.544-0.544 0.55466667 0.544 0.544 0.544 0.544 0.55466667 0.544h4.352l0.544 0.544 0.544 0.544h4.36266667l0.544 0.544 0.544 0.544h2.176l0.544 0.544 0.544 0.544H616.28088886l0.544 0.544 0.544 0.544h2.176l0.544 0.544 0.544 0.544h1.088l0.544 0.544 0.544 0.544h2.18666667l0.544 0.55466666 0.544 0.544h1.088l0.544 0.544 0.544 0.544h2.176l0.544 0.544 0.544 0.544h1.088l0.55466667 0.544 0.544 0.544h1.088l0.544 0.544 0.544 0.544h1.088l0.544 0.544 0.544 0.544h1.088l0.544 0.544 0.544 0.544h1.088l0.55466666 0.544 0.544 0.544h1.088l0.544 0.55466667 0.544 0.544 0.544 0.544 0.544 0.544h1.088l0.544 0.544 0.544 0.544h1.088l0.544 0.544 0.55466667 0.544 0.544 0.544 0.544 0.544h1.088l0.544 0.544 0.544 0.544h1.088l0.544 0.544 0.544 0.544 0.544 0.544 0.544 0.55466667 0.544 0.544 0.544 0.544h1.09866667l0.544 0.544 0.544 0.544 0.544 0.544 0.544 0.544 0.544 0.544 0.544 0.544h1.088l0.544 0.544 0.544 0.544 0.544 0.544 0.544 0.544 0.544 0.544 0.544 0.544 0.544 0.544 0.55466666 0.55466666 0.544 0.544 0.544 0.544 0.544 0.544 0.544 0.544 0.544 0.544 0.544 0.544 0.544 0.544 0.544 0.544 0.544 0.544 0.544 0.544 0.544 0.544 0.544 0.544 0.544 0.544 0.544 0.544 0.55466667 0.544 0.544 0.55466667 0.544 0.544 0.544 0.544 0.544 0.544v1.088l0.544 0.544 0.544 0.544 0.544 0.544 0.544 0.544v1.088l0.544 0.544 0.544 0.544 0.544 0.544 0.544 0.55466667v1.088l0.544 0.544 0.544 0.544v1.088l0.544 0.544 0.55466667 0.544v1.088l0.544 0.544 0.544 0.544v1.088l0.544 0.544 0.544 0.55466666v2.176l0.544 0.544 0.544 0.544v2.176l0.544 0.544 0.544 0.544v2.18666667l0.544 0.544 0.544 0.544v3.264l0.544 0.544 0.544 0.544V209.70666667l0.544 0.544 0.544 0.544v3.264l0.544 0.544 0.55466666 0.544V218.42133333l0.544 0.544 0.544 0.544v3.264l0.544 0.544 0.544 0.544V227.136l0.544 0.544 0.544 0.544V230.4l0.544 0.544 0.544 0.544v1.088l0.544 0.544 0.544 0.544v2.18666667l0.544 0.544 0.544 0.544v1.088l0.544 0.544 0.544 0.544 0.55466667 0.544 0.544 0.544v1.088l0.544 0.544 0.544 0.544v1.09866666l0.544 0.544 0.544 0.544 0.544 0.544 0.544 0.544v1.088l0.544 0.544 0.544 0.544 0.544 0.544 0.544 0.544 0.544 0.544 0.544 0.544 0.544 0.544 0.544 0.544v1.09866667l0.55466667 0.544 0.544 0.544 0.544 0.544 0.544 0.544 0.544 0.544 0.544 0.544 0.544 0.544 0.544 0.544 0.544 0.544 0.544 0.544 0.544 0.544 0.544 0.544 0.544 0.544 0.544 0.544 0.544 0.55466667 0.544 0.544 0.55466666 0.544 0.544 0.544 0.544 0.544 0.544 0.544 0.544 0.544 0.544 0.544 0.544 0.544 0.544 0.544 0.544 0.544 0.544 0.544 0.544 0.544 0.544 0.544 0.544 0.544 0.544 0.544 0.544 0.55466666 0.55466667 0.544 0.544 0.544h1.088l0.544 0.544 0.544 0.544 0.544 0.544 0.544 0.544 0.544 0.544 0.544 0.544 0.544 0.544 0.544 0.544 0.544 0.544 0.544 0.544 0.544 0.544 0.544 0.544 0.55466667 0.544 0.544 0.55466667 0.544 0.544 0.544 0.544 0.544 0.544 0.544 0.544 0.544 0.544 0.544 0.544 0.544 0.544 0.544 0.544 0.544 0.544V292.49066667l-0.544 0.544-0.544 0.544v4.36266666l-0.544 0.544-0.544 0.544v2.176l-0.544 0.544-0.544 0.544v1.09866667l-0.544 0.544-0.544 0.544v2.176l-0.544 0.544-0.544 0.544v2.176l-0.55466667 0.544-0.544 0.544v1.09866667l-0.544 0.544-0.544 0.544v2.176l-0.544 0.544-0.544 0.544v1.088l-0.544 0.544-0.544 0.544v1.088l-0.544 0.55466666-0.544 0.544v1.088l-0.544 0.544-0.544 0.544v1.088l-0.544 0.544-0.544 0.544-0.544 0.544-0.544 0.544v1.088l-0.55466667 0.544-0.544 0.544v1.09866667l-0.544 0.544-0.544 0.544v1.088l-0.544 0.544-0.544 0.544-0.544 0.544-0.544 0.544v1.088l-0.544 0.544-0.544 0.544-0.544 0.544-0.544 0.55466667v1.088l-0.544 0.544-0.544 0.544-0.544 0.544-0.55466666 0.544-0.544 0.544-0.544 0.544v1.088l-0.544 0.544-0.544 0.544-0.544 0.544-0.544 0.544-0.544 0.544-0.544 0.55466666-0.544 0.544-0.544 0.544-0.544 0.544-0.544 0.544-0.544 0.544-0.544 0.544-0.544 0.544-0.55466667 0.544-0.544 0.544-0.544 0.544-0.544 0.544-0.544 0.544-0.544 0.544-0.544 0.544-0.544 0.544-0.544 0.55466667-0.544 0.544-0.544 0.544-0.544 0.544-0.544 0.544-0.544 0.544-0.544 0.544-0.544 0.544h-1.09866667l-0.544 0.544-0.544 0.544-0.544 0.544-0.544 0.544-0.544 0.544-0.544 0.544h-1.088l-0.544 0.544-0.544 0.55466667h-1.088l-0.544 0.544-0.55466666 0.544h-1.088l-0.544 0.544-0.544 0.544h-1.088l-0.544 0.544-0.544 0.544h-1.088l-0.544 0.544-0.544 0.544h-1.088l-0.544 0.544-0.55466667 0.544h-2.176l-0.544 0.544-0.544 0.544h-2.176l-0.544 0.544-0.544 0.544h-3.27466667l-0.544 0.544-0.544 0.55466666h-3.264l-0.544 0.544-0.544 0.544H659.8542222l-0.544 0.544-0.544 0.544H639.1502222l-0.544-0.544-0.544-0.544H591.22488886l-0.544 0.544-0.55466666 0.544H582.5102222l-0.544 0.544-0.55466667 0.544h-5.44l-0.544 0.544-0.544 0.544h-4.36266667l-0.544 0.544-0.544 0.544h-3.264l-0.544 0.544-0.544 0.544h-3.27466666l-0.544 0.544-0.544 0.544h-2.176l-0.544 0.544-0.544 0.55466667h-2.18666667l-0.544 0.544-0.544 0.544h-2.176l-0.544 0.544-0.544 0.544h-1.088l-0.544 0.544-0.544 0.544h-2.18666667l-0.544 0.544-0.544 0.544h-1.088l-0.544 0.544-0.544 0.544h-1.088l-0.544 0.544-0.544 0.544h-1.088l-0.544 0.544-0.55466666 0.544h-1.088l-0.544 0.55466667-0.544 0.544h-1.088l-0.544 0.544-0.544 0.544h-1.088l-0.544 0.544-0.544 0.544h-1.088l-0.544 0.544-0.55466667 0.544h-1.088l-0.544 0.544-0.544 0.544-0.544 0.544-0.544 0.544h-1.088l-0.544 0.544-0.544 0.544-0.544 0.544-0.544 0.544h-1.088l-0.544 0.55466666-0.55466667 0.544-0.544 0.544-0.544 0.544h-1.088l-0.544 0.544-0.544 0.544-0.544 0.544-0.544 0.544h-1.088l-0.544 0.544-0.544 0.544-0.544 0.544-0.544 0.544-0.55466666 0.544-0.544 0.544h-1.088l-0.544 0.544-0.544 0.544-0.544 0.55466667-0.544 0.544h-1.088l-0.544 0.544-0.544 0.544-0.544 0.544-0.544 0.544-0.544 0.544-0.544 0.544-0.55466667 0.544-0.544 0.544h-1.088l-0.544 0.544-0.544 0.544-0.544 0.544-0.544 0.544-0.544 0.544-0.544 0.55466667-0.544 0.544-0.544 0.544-0.544 0.544-0.544 0.544-0.544 0.544-0.544 0.544-0.55466667 0.544-0.544 0.544-0.544 0.544-0.544 0.544h-1.088l-0.544 0.544-0.544 0.544-0.544 0.544-0.544 0.544-0.544 0.544-0.544 0.55466666-0.544 0.544-0.544 0.544-0.544 0.544-0.55466666 0.544-0.544 0.544-0.544 0.544-0.544 0.544-0.544 0.544-0.544 0.544-0.544 0.544-0.544 0.544v1.088l-0.544 0.544-0.544 0.544-0.544 0.55466667-0.544 0.544-0.544 0.544-0.544 0.544-0.544 0.544-0.544 0.544-0.55466667 0.544-0.544 0.544-0.544 0.544-0.544 0.544-0.544 0.544-0.544 0.544-0.544 0.544-0.544 0.544v1.09866667l-0.544 0.544-0.544 0.544-0.544 0.544-0.544 0.544-0.544 0.544-0.544 0.544-0.544 0.544-0.544 0.544v1.088l-0.55466667 0.544-0.544 0.544-0.544 0.544-0.544 0.544-0.544 0.544-0.544 0.55466666-0.544 0.544-0.544 0.544v1.088l-0.544 0.544-0.544 0.544-0.544 0.544-0.544 0.544-0.544 0.544-0.544 0.544v1.088l-0.544 0.544-0.55466666 0.544-0.544 0.544-0.544 0.55466667-0.544 0.544-0.544 0.544v1.088l-0.544 0.544-0.544 0.544-0.544 0.544-0.544 0.544v1.088l-0.544 0.544-0.544 0.544-0.544 0.544-0.544 0.544v1.09866667l-0.544 0.544-0.544 0.544-0.544 0.544-0.55466667 0.544v1.088l-0.544 0.544-0.544 0.544-0.544 0.544-0.544 0.544v1.088l-0.544 0.544-0.544 0.544v1.09866666l-0.544 0.544-0.544 0.544-0.544 0.544-0.544 0.544v1.088l-0.544 0.544-0.544 0.544-0.544 0.544-0.544 0.544v1.088l-0.544 0.544-0.55466667 0.544v1.09866667l-0.544 0.544-0.544 0.544v1.088l-0.544 0.544-0.544 0.544v1.088l-0.544 0.544-0.544 0.544-0.544 0.544-0.544 0.544v1.09866667l-0.544 0.544-0.544 0.544v1.088l-0.544 0.544-0.544 0.544v1.088l-0.544 0.544-0.544 0.544v1.088l-0.55466666 0.544-0.544 0.544v1.09866666l-0.544 0.544-0.544 0.544v1.088l-0.544 0.544-0.544 0.544v1.088l-0.544 0.544-0.544 0.544v1.088l-0.544 0.544-0.544 0.544v2.18666667l-0.544 0.544-0.544 0.544v1.088l-0.544 0.544-0.544 0.544v1.088l-0.544 0.544-0.544 0.544v2.18666667l-0.55466667 0.544-0.544 0.544v1.088l-0.544 0.544-0.544 0.544v1.088l-0.544 0.544-0.544 0.544v2.176l-0.544 0.55466666-0.544 0.544v2.176l-0.544 0.544-0.544 0.544v1.088l-0.544 0.544-0.544 0.544v2.176l-0.544 0.55466667-0.544 0.544v2.176l-0.544 0.544-0.544 0.544v2.176l-0.55466667 0.544-0.544 0.544v2.18666667l-0.544 0.544-0.544 0.544v2.176l-0.544 0.544-0.544 0.544v2.176l-0.544 0.544-0.544 0.55466666v2.176l-0.544 0.544-0.544 0.544v3.264l-0.544 0.544-0.544 0.544v3.27466667l-0.544 0.544-0.544 0.544v2.176l-0.544 0.544-0.55466666 0.544v4.36266667l-0.544 0.544-0.544 0.544v3.264l-0.544 0.544-0.544 0.544v3.27466666l-0.544 0.544-0.544 0.544v5.45066667l-0.544 0.544-0.544 0.544v4.352l-0.544 0.544-0.544 0.544V598.60266667l-0.544 0.544-0.544 0.544V607.31733333l-0.544 0.544-0.544 0.544V618.208l-0.544 0.55466667-0.55466667 0.544V666.144l0.55466667 0.544 0.544 0.544V678.12266667l0.544 0.55466666 0.544 0.544V686.83733333l0.544 0.55466667 0.544 0.544V694.464l0.544 0.544 0.544 0.55466667v4.352l0.544 0.544 0.544 0.544v4.36266666l0.544 0.544 0.544 0.544v4.352l0.544 0.544 0.544 0.544v3.27466667l0.544 0.544 0.544 0.544v3.264l0.55466666 0.544 0.544 0.544v2.18666667l0.544 0.544 0.544 0.544v3.264l0.544 0.544 0.544 0.544v2.18666666l0.544 0.544 0.544 0.544v2.176l0.544 0.544 0.544 0.544v2.176l0.544 0.544 0.544 0.544v2.18666667l0.544 0.544 0.544 0.544V742.4l0.544 0.544 0.55466667 0.544v2.176l0.544 0.544 0.544 0.55466667v1.088l0.544 0.544 0.544 0.544v2.176l0.544 0.544 0.544 0.544v1.088l0.544 0.544 0.544 0.544v2.18666666l0.544 0.544 0.544 0.544v1.088l0.544 0.544 0.544 0.544v1.088l0.544 0.544 0.544 0.544v1.088l0.544 0.544 0.55466667 0.55466667v1.088l0.544 0.544 0.544 0.544v1.088l0.544 0.544 0.544 0.544v1.088l0.544 0.544 0.544 0.544v1.088l0.544 0.55466667 0.544 0.544v1.088l0.544 0.544 0.544 0.544 0.544 0.544 0.544 0.544v1.088l0.544 0.544 0.544 0.544v1.088l0.544 0.544 0.55466666 0.544v1.09866666l0.544 0.544 0.544 0.544 0.544 0.544 0.544 0.544v1.088l0.544 0.544 0.544 0.544 0.544 0.544 0.544 0.544 0.544 0.544 0.544 0.544v1.088l0.544 0.55466667 0.544 0.544 0.544 0.544 0.544 0.544v1.088l0.55466667 0.544 0.544 0.544 0.544 0.544 0.544 0.544 0.544 0.544 0.544 0.544v1.088l0.544 0.544 0.544 0.55466667 0.544 0.544 0.544 0.544 0.544 0.544 0.544 0.544 0.544 0.544 0.544 0.544v1.088l0.544 0.544 0.544 0.544 0.55466667 0.544 0.544 0.544 0.544 0.544 0.544 0.544 0.544 0.544 0.544 0.55466666v1.088l0.544 0.544 0.544 0.544 0.544 0.544 0.544 0.544 0.544 0.544 0.544 0.544 0.544 0.544 0.544 0.544 0.544 0.544 0.544 0.544 0.55466666 0.544 0.544 0.544 0.544 0.544 0.544 0.55466667 0.544 0.544 0.544 0.544 0.544 0.544 0.544 0.544 0.544 0.544 0.544 0.544 0.544 0.544 0.544 0.544 0.544 0.544 0.544 0.544 0.544 0.544 0.55466667 0.544 0.544 0.544 0.544 0.544 0.544 0.55466667 0.544 0.544 0.544 0.544 0.544 0.544 0.544 0.544 0.544 0.544 0.544 0.544 0.544 0.544 0.544 0.544 0.544 0.544 0.544 0.544 0.544 0.544 0.544 0.544 0.55466667 0.544 0.544 0.544 0.544 0.544 0.544 0.55466666 0.544 0.544 0.544 0.544h1.088l0.544 0.544 0.544 0.544 0.544 0.544 0.544 0.544 0.544 0.544 0.544 0.544 0.544 0.544 0.544 0.544h1.09866666l0.544 0.544 0.544 0.544 0.544 0.544 0.544 0.544 0.544 0.544 0.544 0.55466667h1.088l0.544 0.544 0.544 0.544 0.544 0.544 0.544 0.544h1.09866667l0.544 0.544 0.544 0.544 0.544 0.544 0.544 0.544 0.544 0.544 0.544 0.544h1.088l0.544 0.544 0.544 0.544 0.544 0.544 0.544 0.544h1.088l0.544 0.55466667 0.55466667 0.544h1.088l0.544 0.544 0.544 0.544 0.544 0.544 0.544 0.544h1.088l0.544 0.544 0.544 0.544h1.088l0.544 0.544 0.544 0.544 0.544 0.544 0.55466666 0.544h1.088l0.544 0.544 0.544 0.544h1.088l0.544 0.544 0.544 0.544h1.088l0.544 0.55466666 0.544 0.544h1.088l0.55466667 0.544 0.544 0.544 0.544 0.544 0.544 0.544h1.088l0.544 0.544 0.544 0.544h2.176l0.544 0.544 0.544 0.544h1.088l0.55466667 0.544 0.544 0.544h1.088l0.544 0.544 0.544 0.544h1.088l0.544 0.544 0.544 0.544h1.088l0.544 0.55466667 0.544 0.544h2.18666666l0.544 0.544 0.544 0.544H543.28888886l0.544 0.544 0.544 0.544h1.088l0.544 0.544 0.544 0.544h2.18666667l0.544 0.544 0.544 0.544h2.176l0.544 0.544 0.544 0.544h2.176l0.544 0.544 0.55466667 0.544h3.264l0.544 0.544 0.544 0.55466667h2.176l0.544 0.544 0.544 0.544h3.27466666l0.544 0.544 0.544 0.544h4.352l0.55466667 0.544 0.544 0.544h3.264l0.544 0.544 0.544 0.544H583.5982222l0.544 0.544 0.544 0.544h7.62666666l0.544 0.544 0.544 0.544h38.12266667l0.544-0.544 0.544-0.544H640.2382222l0.544-0.544 0.544-0.544H646.77688886l0.544-0.544 0.544-0.544h3.27466667l0.544-0.544 0.544-0.544h4.352l0.544-0.544 0.544-0.544h3.27466667l0.544-0.544 0.544-0.544h2.176l0.544-0.55466667 0.544-0.544h2.18666666l0.544-0.544 0.544-0.544h3.264l0.544-0.544 0.544-0.544h1.088l0.544-0.544 0.544-0.544h2.18666667l0.544-0.544 0.544-0.544h1.088l0.544-0.544 0.544-0.544h2.176l0.544-0.544 0.544-0.544h1.09866667l0.544-0.544 0.544-0.55466667h1.088l0.544-0.544 0.544-0.544h1.088l0.544-0.544 0.544-0.544h1.088l0.544-0.544 0.544-0.544h1.09866666l0.544-0.544 0.544-0.544h1.088l0.544-0.544 0.544-0.544h1.088l0.544-0.544 0.544-0.544 0.544-0.544 0.544-0.544h1.09866667l0.544-0.544 0.544-0.55466666h1.088l0.544-0.544 0.544-0.544 0.544-0.544 0.544-0.544h1.088l0.544-0.544 0.544-0.544 0.544-0.544 0.544-0.544h1.09866667l0.544-0.544 0.544-0.544 0.544-0.544 0.544-0.544 0.544-0.544 0.544-0.544h1.088l0.544-0.544 0.544-0.55466667 0.544-0.544 0.544-0.544 0.544-0.544 0.544-0.544 0.544-0.544 0.55466666-0.544h1.088l0.544-0.544 0.544-0.544 0.544-0.544 0.544-0.544 0.544-0.544 0.544-0.544 0.544-0.544 0.544-0.544 0.544-0.55466667 0.544-0.544 0.544-0.544 0.544-0.544 0.55466667-0.544 0.544-0.544 0.544-0.544 0.544-0.544 0.544-0.544 0.544-0.544 0.544-0.544 0.544-0.544 0.544-0.544 0.544-0.544 0.544-0.544 0.544-0.544 0.544-0.55466666 0.544-0.544 0.544-0.544 0.544-0.544 0.55466667-0.544 0.544-0.544 0.544-0.544 0.544-0.544 0.544-0.544v-1.088l0.544-0.544 0.544-0.544 0.544-0.544 0.544-0.544 0.544-0.544 0.544-0.55466667 0.544-0.544 0.544-0.544v-1.088l0.544-0.544 0.544-0.544 0.544-0.544 0.55466666-0.544 0.544-0.544 0.544-0.544v-1.088l0.544-0.544 0.544-0.544 0.544-0.55466667 0.544-0.544 0.544-0.544 0.544-0.544v-1.088l0.544-0.544 0.544-0.544 0.544-0.544 0.544-0.544v-1.088l0.544-0.544 0.544-0.544 0.55466667-0.544 0.544-0.544 0.544-0.55466666 0.544-0.544v-1.088l0.544-0.544 0.544-0.544 0.544-0.544 0.544-0.544v-1.088l0.544-0.544 0.544-0.544 0.544-0.544 0.544-0.544v-1.088l0.544-0.55466667 0.544-0.544 0.544-0.544 0.544-0.544v-1.088l0.55466667-0.544 0.544-0.544v-1.088l0.544-0.544 0.544-0.544 0.544-0.544 0.544-0.544v-1.09866667l0.544-0.544 0.544-0.544 0.544-0.544 0.544-0.544v-1.088l0.544-0.544 0.544-0.544v-1.088l0.544-0.544 0.544-0.544 0.544-0.544 0.544-0.544v-1.09866666l0.55466666-0.544 0.544-0.544 0.544-0.544 0.544-0.544v-1.088l0.544-0.544 0.544-0.544 0.544-0.544 0.544-0.544v-1.088l0.544-0.544 0.544-0.544 0.544-0.544 0.544-0.55466667 0.544-0.544 0.544-0.544 0.544-0.544 0.55466667-0.544 0.544-0.544 0.544-0.544 0.544-0.544 0.544-0.544 0.544-0.544 0.544-0.544 0.544-0.544 0.544-0.544 0.544-0.544h1.088l0.544-0.544 0.544-0.55466667 0.544-0.544 0.544-0.544h2.18666667l0.544-0.544 0.544-0.544h2.176l0.544-0.544 0.544-0.544H798.20088886l0.544 0.544 0.544 0.544h2.176l0.544 0.544 0.544 0.544h1.09866667l0.544 0.544 0.544 0.544 0.544 0.55466667 0.544 0.544 0.544 0.544 0.544 0.544 0.544 0.544 0.544 0.544 0.544 0.544 0.544 0.544 0.544 0.544v1.088l0.544 0.544 0.544 0.544v1.088l0.544 0.55466667 0.544 0.544v3.264l0.55466667 0.544 0.544 0.544V792.512l-0.544 0.544-0.55466667 0.544V800.13866667l-0.544 0.544-0.544 0.544v3.264l-0.544 0.544-0.544 0.544v3.27466666l-0.544 0.544-0.544 0.544v3.264l-0.544 0.544-0.544 0.544v2.18666667l-0.544 0.544-0.544 0.544v2.176l-0.544 0.544-0.544 0.544v2.176l-0.544 0.55466667-0.544 0.544v2.176l-0.544 0.544-0.55466667 0.544v1.088l-0.544 0.544-0.544 0.544v2.176l-0.544 0.55466666-0.544 0.544v2.176l-0.544 0.544-0.544 0.544v1.088l-0.544 0.544-0.544 0.544v1.088l-0.544 0.544-0.544 0.544v1.09866667l-0.544 0.544-0.544 0.544V844.8l-0.544 0.544-0.544 0.544v1.088l-0.55466666 0.544-0.544 0.544v1.09866667l-0.544 0.544-0.544 0.544v1.088l-0.544 0.544-0.544 0.544v1.088l-0.544 0.544-0.544 0.544-0.544 0.544-0.544 0.544v1.088l-0.544 0.544-0.544 0.55466666v1.088l-0.544 0.544-0.544 0.544v1.088l-0.544 0.544-0.544 0.544-0.55466667 0.544-0.544 0.544v1.088l-0.544 0.544-0.544 0.544-0.544 0.544-0.544 0.55466667v1.088l-0.544 0.544-0.544 0.544v1.088l-0.544 0.544-0.544 0.544-0.544 0.544-0.544 0.544-0.544 0.544-0.544 0.544v1.088l-0.544 0.55466667-0.544 0.544-0.55466667 0.544-0.544 0.544v1.088l-0.544 0.544-0.544 0.544-0.544 0.544-0.544 0.544-0.544 0.544-0.544 0.544-0.544 0.544-0.544 0.544v1.088l-0.544 0.55466666-0.544 0.544-0.544 0.544-0.544 0.544-0.544 0.544-0.55466666 0.544-0.544 0.544-0.544 0.544-0.544 0.544-0.544 0.544v1.088l-0.544 0.544-0.544 0.544-0.544 0.544-0.544 0.544-0.544 0.55466667-0.544 0.544-0.544 0.544-0.544 0.544-0.544 0.544-0.544 0.544-0.544 0.544-0.55466667 0.544-0.544 0.544-0.544 0.544-0.544 0.544-0.544 0.544-0.544 0.544-0.544 0.544-0.544 0.544-0.544 0.55466667-0.544 0.544-0.544 0.544-0.544 0.544-0.544 0.544-0.544 0.544-0.544 0.544-0.544 0.544-0.55466667 0.544-0.544 0.544-0.544 0.544-0.544 0.544-0.544 0.544-0.544 0.544-0.544 0.544-0.544 0.544-0.544 0.55466666-0.544 0.544h-1.088l-0.544 0.544-0.544 0.544-0.544 0.544-0.55466666 0.544-0.544 0.544-0.544 0.544-0.544 0.544-0.544 0.544-0.544 0.544-0.544 0.544h-1.088l-0.544 0.544-0.544 0.544-0.544 0.544-0.544 0.544-0.544 0.55466667-0.544 0.544-0.544 0.544-0.55466667 0.544h-1.088l-0.544 0.544-0.544 0.544-0.544 0.544-0.544 0.544-0.544 0.544-0.544 0.544h-1.088l-0.544 0.544-0.544 0.544-0.544 0.544-0.544 0.544h-1.09866667l-0.544 0.544-0.544 0.55466667-0.544 0.544-0.544 0.544-0.544 0.544-0.544 0.544h-1.088l-0.544 0.544-0.544 0.544-0.544 0.544-0.544 0.544h-1.088l-0.55466666 0.544-0.544 0.544h-1.088l-0.544 0.544-0.544 0.544-0.544 0.544-0.544 0.544h-1.088l-0.544 0.544-0.544 0.55466666-0.544 0.544-0.544 0.544h-1.088l-0.55466667 0.544-0.544 0.544h-1.088l-0.544 0.544-0.544 0.544h-1.088l-0.544 0.544-0.544 0.544h-1.088l-0.544 0.544-0.544 0.544-0.544 0.544-0.544 0.544h-1.09866667l-0.544 0.544-0.544 0.544h-1.088l-0.544 0.544-0.544 0.55466667h-1.088l-0.544 0.544-0.544 0.544h-1.088l-0.544 0.544-0.55466666 0.544h-1.088l-0.544 0.544-0.544 0.544h-1.088l-0.544 0.544-0.544 0.544h-1.088l-0.544 0.544-0.544 0.544h-2.18666667l-0.544 0.544-0.544 0.544h-1.088l-0.544 0.544-0.544 0.544h-1.088l-0.544 0.55466667-0.544 0.544h-1.088l-0.544 0.544-0.544 0.544h-2.18666667l-0.544 0.544-0.544 0.544h-2.176l-0.544 0.544-0.544 0.544h-1.088l-0.544 0.544-0.544 0.544h-2.18666666l-0.544 0.544-0.544 0.544h-2.176l-0.544 0.544-0.544 0.544h-2.176l-0.55466667 0.544-0.544 0.544h-2.176l-0.544 0.55466666-0.544 0.544h-2.176l-0.544 0.544-0.544 0.544h-2.18666667l-0.544 0.544-0.544 0.544h-3.264l-0.544 0.544-0.544 0.544h-3.27466666l-0.544 0.544-0.544 0.544h-3.264l-0.544 0.544-0.544 0.544h-3.27466667l-0.544 0.544-0.544 0.544h-4.352l-0.544 0.544-0.544 0.544H619.54488886l-0.544 0.55466667-0.544 0.544H613.0062222l-0.544 0.544-0.544 0.544H605.37955553l-0.544 0.544-0.544 0.544H593.40088886l-0.544 0.544-0.544 0.544z" p-id="5633" fill="#888888"></path></svg>